<?xml version="1.0" encoding="UTF-8"?>
<svg id="Layer_2" data-name="Layer 2" xmlns="http://www.w3.org/2000/svg" viewBox="0 0 106.1 96.16">
  <defs>
    <style>
      .cls-1 {
        fill: #1042ed;
      }
    </style>
  </defs>
  <g id="Layer_1-2" data-name="Layer 1">
    <g>
      <g>
        <polygon class="cls-1" points="49.74 72.95 49.74 79.58 46.42 79.58 46.42 76.26 43.1 76.26 43.1 79.58 39.79 79.58 39.79 72.95 49.74 72.95"/>
        <polygon class="cls-1" points="43.1 89.52 43.1 92.84 39.79 92.84 39.79 96.16 36.47 96.16 36.47 79.58 39.79 79.58 39.79 89.52 43.1 89.52"/>
        <rect class="cls-1" x="43.1" y="79.58" width="3.32" height="9.95"/>
      </g>
      <g>
        <rect class="cls-1" x="66.31" y="63" width="6.63" height="3.32"/>
        <rect class="cls-1" x="72.95" y="66.31" width="3.32" height="6.63"/>
        <polygon class="cls-1" points="79.58 72.95 79.58 79.58 72.95 79.58 72.95 76.26 76.26 76.26 76.26 72.95 79.58 72.95"/>
        <rect class="cls-1" x="69.63" y="72.95" width="3.32" height="3.32"/>
        <rect class="cls-1" x="79.58" y="79.58" width="3.32" height="3.32"/>
        <polygon class="cls-1" points="69.63 69.63 69.63 72.95 63 72.95 63 66.31 66.31 66.31 66.31 69.63 69.63 69.63"/>
      </g>
      <g>
        <rect class="cls-1" x="16.58" y="66.31" width="6.63" height="3.32"/>
        <rect class="cls-1" x="13.26" y="69.63" width="3.32" height="3.32"/>
        <polygon class="cls-1" points="16.58 76.26 16.58 79.58 13.26 79.58 13.26 82.89 6.63 82.89 6.63 79.58 9.95 79.58 9.95 72.95 13.26 72.95 13.26 76.26 16.58 76.26"/>
        <rect class="cls-1" x="16.58" y="72.95" width="6.63" height="3.32"/>
        <rect class="cls-1" x="23.21" y="69.63" width="6.63" height="3.32"/>
        <rect class="cls-1" x="29.84" y="66.31" width="3.32" height="3.32"/>
        <rect class="cls-1" x="23.21" y="63" width="6.63" height="3.32"/>
      </g>
      <g>
        <polygon class="cls-1" points="106.1 49.74 106.1 53.05 79.58 53.05 79.58 43.1 89.52 43.1 89.52 46.42 82.89 46.42 82.89 49.74 89.52 49.74 89.52 46.42 99.47 46.42 99.47 49.74 106.1 49.74"/>
        <rect class="cls-1" x="76.26" y="53.05" width="3.32" height="3.32"/>
      </g>
      <g>
        <polygon class="cls-1" points="79.58 26.53 79.58 29.84 76.26 29.84 76.26 33.16 72.95 33.16 72.95 26.53 79.58 26.53"/>
        <polygon class="cls-1" points="89.52 26.53 89.52 29.84 86.21 29.84 86.21 33.16 82.89 33.16 82.89 36.47 76.26 36.47 76.26 33.16 79.58 33.16 79.58 29.84 82.89 29.84 82.89 26.53 79.58 26.53 79.58 23.21 86.21 23.21 86.21 26.53 89.52 26.53"/>
        <polygon class="cls-1" points="99.47 16.58 99.47 19.89 96.16 19.89 96.16 23.21 92.84 23.21 92.84 26.53 89.52 26.53 89.52 23.21 86.21 23.21 86.21 19.89 92.84 19.89 92.84 16.58 99.47 16.58"/>
      </g>
      <g>
        <polygon class="cls-1" points="66.31 16.58 66.31 26.53 53.05 26.53 53.05 19.89 56.37 19.89 56.37 23.21 63 23.21 63 16.58 66.31 16.58"/>
        <polygon class="cls-1" points="69.63 0 69.63 16.58 66.31 16.58 66.31 9.95 63 9.95 63 6.63 66.31 6.63 66.31 0 69.63 0"/>
        <rect class="cls-1" x="59.68" y="9.95" width="3.32" height="6.63"/>
        <rect class="cls-1" x="56.37" y="16.58" width="3.32" height="3.32"/>
      </g>
      <g>
        <rect class="cls-1" x="36.47" y="33.16" width="3.32" height="3.32"/>
        <rect class="cls-1" x="33.16" y="29.84" width="3.32" height="3.32"/>
        <rect class="cls-1" x="29.84" y="23.21" width="3.32" height="6.63"/>
        <rect class="cls-1" x="33.16" y="19.89" width="3.32" height="3.32"/>
        <rect class="cls-1" x="36.47" y="23.21" width="3.32" height="3.32"/>
        <polygon class="cls-1" points="46.42 26.53 46.42 29.84 43.1 29.84 43.1 33.16 39.79 33.16 39.79 26.53 46.42 26.53"/>
        <polygon class="cls-1" points="33.16 16.58 33.16 19.89 29.84 19.89 29.84 23.21 26.53 23.21 26.53 13.26 29.84 13.26 29.84 16.58 33.16 16.58"/>
      </g>
      <g>
        <rect class="cls-1" x="9.95" y="49.74" width="16.58" height="3.32"/>
        <rect class="cls-1" y="46.42" width="9.95" height="3.32"/>
        <polygon class="cls-1" points="29.84 43.1 29.84 49.74 26.53 49.74 26.53 46.42 9.95 46.42 9.95 43.1 29.84 43.1"/>
      </g>
      <g>
        <rect class="cls-1" x="40.65" y="65.14" width="12.41" height="3.1"/>
        <rect class="cls-1" x="37.54" y="62.04" width="3.1" height="3.1"/>
        <rect class="cls-1" x="53.05" y="62.04" width="6.2" height="3.1"/>
        <rect class="cls-1" x="65.46" y="55.83" width="3.1" height="3.1"/>
        <rect class="cls-1" x="68.56" y="49.63" width="3.1" height="6.2"/>
        <rect class="cls-1" x="71.66" y="40.32" width="3.1" height="9.31"/>
        <rect class="cls-1" x="68.56" y="34.12" width="3.1" height="6.2"/>
        <rect class="cls-1" x="49.95" y="31.02" width="18.61" height="3.1"/>
        <polygon class="cls-1" points="51.68 37.22 51.68 40.32 48.58 40.32 48.58 37.22 43.74 37.22 43.74 34.12 49.95 34.12 49.95 37.22 51.68 37.22"/>
        <polygon class="cls-1" points="65.46 58.93 65.46 62.04 53.05 62.04 53.05 65.14 40.65 65.14 40.65 62.04 37.54 62.04 37.54 55.84 34.44 55.84 34.44 49.63 37.54 49.63 37.54 43.43 40.65 43.43 40.65 37.22 43.74 37.22 43.74 39.87 46.39 39.87 46.39 42.97 45.51 42.97 45.51 45.62 44.62 45.62 44.62 47.8 47.27 47.8 47.27 50.45 49.91 50.45 49.91 53.09 52.56 53.09 52.56 53.98 55.21 53.98 55.21 54.86 57.85 54.86 57.85 56.62 60.5 56.62 60.5 58.93 65.46 58.93"/>
        <rect class="cls-1" x="47.7" y="44.28" width="3.1" height="3.1"/>
        <polygon class="cls-1" points="64.91 48.68 64.91 51.79 62.26 51.79 62.26 54.43 59.17 54.43 59.17 51.33 61.81 51.33 61.81 48.68 64.91 48.68"/>
        <rect class="cls-1" x="37.54" y="40.32" width="3.1" height="3.1"/>
        <rect class="cls-1" x="34.44" y="43.43" width="3.1" height="6.2"/>
        <rect class="cls-1" x="31.34" y="49.63" width="3.1" height="6.21"/>
        <rect class="cls-1" x="34.44" y="55.84" width="3.1" height="6.2"/>
      </g>
    </g>
  </g>
</svg>