<?xml version="1.0" encoding="UTF-8"?>
<svg id="Layer_2" data-name="Layer 2" xmlns="http://www.w3.org/2000/svg" viewBox="0 0 283.5 62.67">
  <g id="Layer_1-2" data-name="Layer 1">
    <g>
      <g>
        <path d="M193.5,59.05c.38,1.7,1.52,2.71,3.62,2.71,2.34,0,3.24-1.17,3.24-2.56s-.64-2.34-3.46-3.03c-2.71-.68-3.88-1.55-3.88-3.4,0-1.68,1.22-3.25,3.97-3.25s4,1.72,4.17,3.27h-1.02c-.29-1.37-1.19-2.36-3.2-2.36-1.85,0-2.85.86-2.85,2.29s.84,1.96,3.2,2.54c3.6.9,4.13,2.34,4.13,3.88,0,1.88-1.37,3.51-4.33,3.51-3.2,0-4.37-1.86-4.61-3.58h1.02Z"/>
        <path d="M206.3,50.61h-4.3v-.91h9.62v.91h-4.31v11.88h-1.01v-11.88Z"/>
        <path d="M214.24,49.69v7.75c0,3.4,1.92,4.28,3.73,4.28,2.14,0,3.73-.9,3.73-4.28v-7.75h1.01v7.7c0,4-2.12,5.25-4.77,5.25s-4.72-1.37-4.72-5.08v-7.86h1.02Z"/>
        <path d="M225.83,49.69h4.24c3.51,0,5.94,2.45,5.94,6.29s-2.38,6.51-5.96,6.51h-4.22v-12.8ZM226.82,61.57h3.09c3.38,0,5.05-2.38,5.05-5.54,0-2.82-1.5-5.43-5.05-5.43h-3.09v10.97Z"/>
        <path d="M239.37,49.69v12.8h-.99v-12.8h.99Z"/>
        <path d="M253.24,56c0,3.49-1.86,6.67-5.81,6.67-3.6,0-5.7-2.91-5.7-6.58s2.03-6.58,5.83-6.58c3.51,0,5.69,2.76,5.69,6.49ZM242.79,56.03c0,2.94,1.63,5.72,4.7,5.72,3.31,0,4.7-2.71,4.7-5.74s-1.57-5.59-4.66-5.59c-3.29,0-4.73,2.72-4.73,5.61Z"/>
        <path d="M255.64,59.05c.38,1.7,1.52,2.71,3.62,2.71,2.34,0,3.24-1.17,3.24-2.56s-.64-2.34-3.46-3.03c-2.71-.68-3.88-1.55-3.88-3.4,0-1.68,1.22-3.25,3.97-3.25s4,1.72,4.17,3.27h-1.02c-.29-1.37-1.19-2.36-3.2-2.36-1.85,0-2.85.86-2.85,2.29s.84,1.96,3.2,2.54c3.6.9,4.13,2.34,4.13,3.88,0,1.88-1.37,3.51-4.33,3.51-3.2,0-4.37-1.86-4.61-3.58h1.02Z"/>
      </g>
      <g>
        <path d="M283.5,16.79c0,1.21-.43,2.24-1.29,3.11-.86.86-1.89,1.3-3.09,1.3s-2.25-.43-3.11-1.3c-.86-.87-1.29-1.9-1.29-3.11s.43-2.25,1.29-3.11c.86-.86,1.9-1.29,3.12-1.29s2.23.43,3.08,1.29c.85.86,1.28,1.9,1.28,3.12ZM282.71,16.79c0-1.01-.35-1.88-1.06-2.61-.7-.73-1.55-1.09-2.53-1.09s-1.86.36-2.56,1.09-1.06,1.6-1.06,2.61.35,1.9,1.06,2.62,1.56,1.08,2.55,1.08,1.83-.36,2.54-1.08c.71-.72,1.06-1.6,1.06-2.62ZM280.12,17.5l1.02.11c-.07.54-.28.98-.65,1.3-.37.32-.84.49-1.42.49-.65,0-1.18-.23-1.58-.7-.4-.47-.6-1.1-.6-1.91s.2-1.42.59-1.9c.4-.48.93-.72,1.61-.72,1.14,0,1.82.62,2.04,1.85l-1.02.11s-.01-.05-.04-.14c-.17-.67-.5-1-.98-1-.3,0-.55.14-.75.42-.2.28-.3.74-.3,1.37,0,.58.1,1.03.3,1.33.2.31.46.46.79.46.26,0,.48-.1.66-.3.19-.2.29-.45.32-.77Z"/>
        <g>
          <path d="M87.26,38.9c-.68.12-1.21.19-1.57.19-1.1,0-1.89-.2-2.37-.6-.48-.39-.72-1.14-.72-2.23,0-.45.08-1.07.25-1.87.16-.8.33-1.5.5-2.12l2.43-9.27c.23-.87.4-1.74.5-2.63.11-.88.16-1.5.16-1.85,0-1.73-.52-3.13-1.55-4.2-1.04-1.07-2.47-1.6-4.31-1.6-1.96,0-3.7.41-5.23,1.23-1.54.82-3.36,2.07-5.46,3.76h-.18c-.03-1.46-.38-2.6-1.04-3.43-.66-.83-1.75-1.24-3.28-1.24-.83,0-1.82.16-2.98.49-1.13.31-2.43.8-3.9,1.45l.32-1.37-.35-.43-5.03.35-5.02,21.72c-1.31,1.31-2.61,2.28-3.91,2.93-1.3.64-2.56.96-3.79.96s-2.09-.37-2.65-1.12-.83-1.77-.83-3.06c0-.36.06-.9.18-1.6.13-.7.29-1.46.48-2.26l2.54-10.68c.16-.59.27-1.19.35-1.79.07-.59.11-1.06.11-1.41,0-1.33-.36-2.35-1.08-3.07s-1.85-1.08-3.39-1.08c-.69,0-1.61.17-2.75.52-.52.16-1.08.35-1.68.59l2.84-13.26h-2.31l-1.59,1.96c-1.53-1.11-3.07-1.87-4.6-2.28-1.53-.4-3.15-.6-4.86-.6-1.82,0-3.67.33-5.52.98-1.86.65-3.44,1.53-4.75,2.62-1.34,1.14-2.43,2.48-3.24,4.04-.82,1.56-1.23,3.26-1.23,5.11s.53,3.69,1.59,5.23c1.05,1.55,2.44,2.74,4.17,3.57,1.31.63,2.64,1.18,3.99,1.66,1.35.47,2.72,1,4.11,1.6,1.45.63,2.55,1.53,3.28,2.68s1.09,2.47,1.09,3.95c0,2.75-.86,4.92-2.59,6.51-1.73,1.58-4.02,2.38-6.88,2.38-1.9,0-3.5-.34-4.79-1-1.28-.66-2.33-1.6-3.14-2.81-.8-1.17-1.38-2.49-1.74-3.95-.35-1.46-.58-3.03-.68-4.71h-2.33l-2.83,14.02h2.31l1.64-2.1c1.1.77,2.54,1.45,4.32,2.03,1.77.59,3.85.88,6.21.88s4.46-.33,6.39-1.01c1.93-.67,3.68-1.64,5.24-2.91,1.48-1.19,2.66-2.67,3.55-4.44.88-1.77,1.32-3.68,1.32-5.72s-.62-3.9-1.85-5.36c-1.24-1.46-2.97-2.71-5.17-3.75-1.1-.52-2.34-1.02-3.73-1.49-1.4-.47-2.73-1.03-3.99-1.68-1.19-.62-2.07-1.42-2.64-2.41-.57-.99-.85-2.2-.85-3.62,0-2.16.77-4.02,2.31-5.59,1.53-1.56,3.43-2.35,5.7-2.35,1.88,0,3.39.33,4.52.97,1.13.64,2.01,1.53,2.65,2.67.57,1.04.98,2.34,1.22,3.92s.39,3.11.45,4.59h1.56c-.46.19-.94.39-1.44.62l-.43,1.86c.36-.1.87-.23,1.52-.39.66-.17,1.19-.25,1.62-.25,1.09,0,1.81.18,2.17.54s.53,1.07.53,2.15c0,.59-.06,1.22-.19,1.87-.12.66-.28,1.41-.47,2.25l-2.24,9.15c-.29,1.25-.47,2.19-.55,2.82-.07.64-.11,1.19-.11,1.65,0,1.73.51,3.13,1.53,4.2,1.02,1.06,2.45,1.6,4.3,1.6,1.21,0,2.19-.1,2.94-.31.75-.2,1.59-.53,2.51-.99.79-.41,1.59-.91,2.39-1.5.81-.6,1.66-1.25,2.54-1.96h.18c0,1.21.38,2.27,1.14,3.17.75.9,1.91,1.36,3.47,1.36.9,0,1.89-.17,2.96-.49.98-.31,2.2-.75,3.64-1.33l-.31,1.33h5.39l4.93-21.2c1.28-1.46,2.64-2.58,4.09-3.35s2.76-1.16,3.92-1.16,2.11.38,2.72,1.13c.62.75.92,1.77.92,3.06,0,.4-.06.94-.19,1.62-.12.67-.29,1.42-.5,2.25l-2.85,10.77c-.18.69-.3,1.3-.38,1.81-.08.51-.12.97-.12,1.4,0,1.17.39,2.16,1.16,2.96.77.8,1.93,1.2,3.48,1.2.98,0,1.95-.16,2.92-.48.96-.32,2.31-.82,4.05-1.51l.44-1.85c-.37.13-.89.26-1.58.39ZM63.61,21.13c-.18.88-.32,1.55-.42,2.01l-3.59,15.51c-.32.09-.72.18-1.2.26-.67.12-1.19.18-1.56.18-1.09,0-1.87-.2-2.34-.6-.47-.39-.71-1.13-.71-2.23,0-.33.08-.89.23-1.69.16-.8.33-1.59.52-2.38l3.54-15.35c.35-.08.83-.19,1.43-.33.65-.14,1.2-.21,1.62-.21,1.1,0,1.84.18,2.2.55.37.36.55,1.08.55,2.16,0,.54-.09,1.25-.27,2.12Z"/>
          <path d="M216.92,38.36c-.93.08-1.65.12-2.17.12-1.62,0-2.75-.47-3.37-1.41-.63-.94-.95-2.54-.95-4.78v-15.79h8.05v-3.15h-8.1V4.61h-9.35v8.74h-3.23l-.04-.89h-2.19l-.6,1.7c-1-.42-2.24-.81-3.71-1.17-1.47-.35-3.08-.53-4.83-.53-3.7,0-6.68.84-8.96,2.51-2.28,1.67-3.42,3.87-3.42,6.58,0,1.46.26,2.72.78,3.78.52,1.05,1.21,1.96,2.08,2.71,1,.84,1.96,1.46,2.9,1.86.93.39,2.05.78,3.36,1.17,1.3.38,2.41.71,3.3.98.89.27,1.72.59,2.47.98.67.36,1.2.8,1.58,1.3.39.5.58,1.13.58,1.9,0,1.42-.43,2.48-1.28,3.16-.86.68-2.16,1.02-3.91,1.02-1.33,0-2.58-.29-3.74-.89-1.16-.6-2.2-1.33-3.1-2.19-.87-.87-1.63-1.84-2.31-2.93-.67-1.09-1.15-2.06-1.44-2.93h-2.11l.26,7.48c-.14-.04-.25-.08-.35-.12-.54-.25-.94-.63-1.2-1.13-.26-.5-.39-1.18-.39-2.05,0-.94.05-2.9.13-5.88.09-2.98.13-5.56.13-7.73s-.35-3.73-1.05-5.01c-.7-1.28-1.65-2.25-2.84-2.93-1.25-.69-2.65-1.14-4.21-1.37-1.56-.22-3.27-.33-5.14-.33-1.34,0-2.81.16-4.38.48-1.58.32-2.97.76-4.18,1.34-1.24.56-2.28,1.26-3.13,2.12-.86.86-1.29,1.82-1.29,2.9,0,1.25.42,2.26,1.25,3.04.82.78,2.05,1.17,3.67,1.17,1.14,0,1.98-.1,2.53-.32.55-.21,1.05-.51,1.49-.89.33-.29.58-.68.75-1.17.18-.49.26-.9.26-1.22,0-.74-.13-1.5-.4-2.28-.27-.79-.44-1.38-.49-1.76.34-.25.8-.5,1.37-.74s1.27-.36,2.12-.36c.94,0,1.7.21,2.28.63.57.43,1,.95,1.27,1.56.25.54.41,1.2.49,1.99.08.79.11,1.43.11,1.91v2.77c-1.11.54-2.89,1.15-5.31,1.83-2.43.68-4.51,1.34-6.24,1.98-.91.35-1.74.72-2.5,1.13-.76.4-1.43.91-2.01,1.53-.34.35-.63.74-.88,1.15.27-1.22.41-2.48.41-3.79,0-2.15-.38-4.15-1.13-6-.75-1.84-1.83-3.43-3.26-4.76-1.46-1.34-3.21-2.39-5.26-3.13s-4.42-1.11-7.11-1.11-4.91.37-7,1.11c-2.09.74-3.84,1.79-5.26,3.13-.75.72-1.41,1.48-1.97,2.3-.23-1.86-1.24-3.38-3.03-4.53-2.06-1.34-4.86-2.01-8.4-2.01-2.51,0-4.82.42-6.9,1.26-2.09.83-3.84,1.95-5.24,3.36-1.37,1.36-2.45,2.95-3.25,4.76-.79,1.81-1.19,3.71-1.19,5.71,0,2.19.32,4.22.98,6.09.65,1.86,1.64,3.48,2.97,4.84,1.33,1.35,3.01,2.41,5.06,3.19,2.05.78,4.41,1.17,7.08,1.17,1.66,0,3.11-.2,4.36-.61,1.25-.4,2.48-1,3.69-1.79,1.16-.75,2.15-1.61,2.97-2.58.38-.44.74-.91,1.07-1.4.6.87,1.3,1.65,2.09,2.34,1.51,1.35,3.26,2.36,5.23,3.03,1.97.67,4.13,1.01,6.48,1.01,2.71,0,5.12-.39,7.22-1.16,2.11-.76,3.92-1.87,5.44-3.31,1.22-1.16,2.2-2.52,2.92-4.08-.06.42-.08.86-.08,1.33,0,2.17.79,3.92,2.36,5.24,1.58,1.32,3.49,1.98,5.73,1.98,1.5,0,2.67-.11,3.51-.32.83-.21,1.71-.53,2.61-.95.69-.33,1.34-.72,1.95-1.18.61-.46,1.24-1.02,1.89-1.68h.18c.4,1.31,1.16,2.32,2.27,3.02,1.11.7,2.85,1.05,5.21,1.05,1.29,0,2.51-.15,3.66-.46.03-.01.07-.02.1-.03h2.15l.36-.83c.13-.04.26-.1.38-.15v-.71l.12-.27c.99.61,2.37,1.2,4.14,1.74,1.78.55,3.61.83,5.47.83,3.98,0,7.21-.87,9.68-2.6,2.47-1.73,3.71-4.17,3.71-7.33,0-2.36-.8-4.31-2.39-5.84-1.6-1.53-4.11-2.73-7.55-3.62-2.23-.58-3.96-1.19-5.2-1.85-1.24-.65-1.86-1.71-1.86-3.17,0-1.09.43-1.95,1.27-2.57.85-.61,2.01-.92,3.49-.92,1.89,0,3.65.73,5.28,2.18,1.64,1.45,2.79,3.18,3.47,5.18h2.01l-.27-5.8h2.96v17.69c0,2.71.73,4.79,2.18,6.25s3.68,2.19,6.68,2.19c2.02,0,3.73-.21,5.14-.64,1.4-.44,2.72-.92,3.95-1.46v-2.42c-.37.09-1.02.18-1.94.25ZM110.46,37.14c-1.26.95-2.95,1.43-5.09,1.43s-4.15-1.05-5.75-3.15c-1.61-2.09-2.41-4.85-2.41-8.28,0-2.27.18-4.21.53-5.82.36-1.62.83-2.91,1.43-3.87.62-1.02,1.28-1.73,1.99-2.13.71-.41,1.5-.61,2.37-.61.69,0,1.2.09,1.53.27.32.19.59.45.8.8-.05.48-.24,1.18-.54,2.1-.31.93-.47,1.86-.47,2.8,0,1.12.49,2.02,1.46,2.71.97.7,2.18,1.04,3.62,1.04,1.1,0,2-.16,2.7-.47-.24,1.13-.36,2.35-.36,3.64,0,2.26.4,4.3,1.17,6.14-.89,1.44-1.88,2.57-2.98,3.4ZM134.91,32.71c-.21,1.54-.52,2.85-.94,3.92-.48,1.25-1.14,2.2-1.96,2.85-.83.64-1.82.96-2.98.96-1.26,0-2.31-.34-3.14-1.04-.83-.69-1.46-1.63-1.9-2.82-.52-1.39-.85-2.77-.98-4.14-.14-1.38-.21-3.11-.21-5.21,0-1.6.08-3.13.23-4.6.16-1.47.44-2.76.84-3.85.44-1.19,1.07-2.17,1.89-2.92s1.91-1.12,3.27-1.12c1.25,0,2.29.35,3.11,1.04.81.69,1.45,1.64,1.91,2.85.39,1,.68,2.37.87,4.1.19,1.73.29,3.27.29,4.62,0,2.03-.1,3.82-.3,5.36ZM162.16,36.02c-.52.64-1.13,1.17-1.81,1.61-.69.43-1.56.65-2.62.65s-1.85-.34-2.53-1.01c-.69-.68-1.03-1.77-1.03-3.27,0-1.14.2-2.13.61-2.96.4-.84.96-1.53,1.67-2.07.68-.52,1.55-1.02,2.61-1.49,1.06-.47,2.13-.89,3.21-1.26l-.11,9.8Z"/>
          <path d="M246.04,34.96c-.67,1.1-1.49,2.13-2.44,3.1-.95.97-2.03,1.8-3.25,2.5-1.29.73-2.59,1.28-3.91,1.66-1.32.38-2.83.56-4.54.56-2.85,0-5.3-.4-7.37-1.21s-3.77-1.89-5.12-3.26c-1.35-1.37-2.35-2.98-3.01-4.83-.66-1.86-1-3.87-1-6.04,0-1.96.36-3.84,1.08-5.64.72-1.8,1.75-3.4,3.07-4.8,1.31-1.37,2.96-2.47,4.95-3.32,1.99-.85,4.22-1.27,6.68-1.27,2.69,0,4.9.33,6.63.98s3.16,1.56,4.3,2.71c1.1,1.1,1.89,2.39,2.39,3.88.5,1.49.75,3.05.75,4.69v1.88h-19.5c0,3.94.76,6.94,2.28,9,1.52,2.06,3.93,3.09,7.24,3.09,1.81,0,3.43-.49,4.88-1.49s2.67-2.25,3.69-3.76l2.19,1.59ZM235.02,24c0-1.15-.06-2.34-.17-3.55-.12-1.21-.32-2.2-.61-2.97-.33-.9-.77-1.59-1.34-2.05-.57-.46-1.28-.69-2.15-.69-1.48,0-2.66.75-3.55,2.25-.88,1.5-1.37,3.88-1.44,7.12l9.26-.12Z"/>
          <path d="M271.69,18.52c0,1.46-.45,2.75-1.36,3.85-.9,1.11-2.1,1.66-3.58,1.66-1.4,0-2.59-.35-3.56-1.06-.97-.71-1.46-1.75-1.46-3.13,0-.67.05-1.19.14-1.56.1-.37.18-.72.26-1.05-.88.04-1.82.34-2.8.92-.98.57-1.85,1.33-2.6,2.29v15.84c0,.67.11,1.23.32,1.67.21.44.57.79,1.07,1.04.42.21,1.11.39,2.06.53.95.14,1.64.23,2.06.25v2.11h-19.3v-2.11c.48-.04.97-.09,1.46-.16.49-.07.91-.16,1.25-.27.62-.21,1.04-.54,1.27-.98.23-.44.35-1.02.35-1.73v-16.79c0-.69-.16-1.31-.49-1.86-.33-.55-.72-.99-1.18-1.31-.35-.23-.78-.42-1.31-.58-.53-.15-1.11-.26-1.75-.32v-2.11l13.76-.75.43.43v4.18h.12c1.33-1.54,2.74-2.75,4.23-3.62,1.49-.88,3.04-1.31,4.66-1.31,1.79,0,3.23.55,4.31,1.66,1.09,1.11,1.63,2.53,1.63,4.28Z"/>
        </g>
      </g>
    </g>
  </g>
</svg>